<?xml version="1.0" standalone="no"?>
<!DOCTYPE svg PUBLIC "-//W3C//DTD SVG 20010904//EN"
 "http://www.w3.org/TR/2001/REC-SVG-20010904/DTD/svg10.dtd">
<svg version="1.0" xmlns="http://www.w3.org/2000/svg"
 width="128.000000pt" height="128.000000pt" viewBox="0 0 128.000000 128.000000"
 preserveAspectRatio="xMidYMid meet">

<g transform="translate(0.000000,128.000000) scale(0.100000,-0.100000)"
fill="#000000" stroke="none">
<path d="M95 1127 c-19 -48 -21 -119 -5 -162 13 -36 65 -91 102 -111 15 -8 51
-19 80 -25 l52 -12 -63 -22 c-68 -25 -131 -78 -152 -127 -15 -37 -6 -46 53
-54 32 -5 59 -2 85 9 l38 15 0 -107 c0 -127 17 -172 95 -255 74 -78 149 -110
260 -111 74 0 93 4 150 31 80 38 145 101 179 174 23 49 26 68 26 162 0 68 4
106 10 104 47 -21 89 -28 129 -22 25 4 48 11 51 16 11 18 -23 77 -66 114 -28
23 -68 44 -110 57 -60 18 -75 19 -150 9 -102 -13 -217 -43 -269 -70 -54 -27
-58 -40 -8 -23 94 32 201 -20 242 -119 31 -74 10 -163 -50 -220 -38 -35 -74
-48 -135 -48 -95 0 -181 72 -195 165 -8 57 12 177 41 241 41 93 139 153 335
206 l85 23 -295 6 c-250 5 -302 8 -344 24 -62 23 -123 82 -132 130 -9 50 -19
51 -39 2z"/>
</g>
</svg>
