<?xml version="1.0" standalone="no"?>
<!DOCTYPE svg PUBLIC "-//W3C//DTD SVG 20010904//EN"
 "http://www.w3.org/TR/2001/REC-SVG-20010904/DTD/svg10.dtd">
<svg version="1.0" xmlns="http://www.w3.org/2000/svg"
 width="240.000000pt" height="240.000000pt" viewBox="0 0 240.000000 240.000000"
 preserveAspectRatio="xMidYMid meet">

<g transform="translate(0.000000,240.000000) scale(0.100000,-0.100000)"
fill="#000000" stroke="none">
<path d="M186 2138 c-37 -82 -46 -119 -46 -190 0 -206 143 -350 393 -398 61
-11 91 -30 50 -30 -27 0 -100 -27 -170 -62 -92 -46 -167 -117 -203 -193 -16
-34 -30 -67 -30 -72 0 -14 37 -28 113 -43 74 -15 140 -5 205 32 18 10 35 18
38 18 4 0 3 -19 0 -42 -42 -285 7 -464 175 -642 70 -74 171 -142 255 -171 60
-21 185 -45 239 -45 41 0 155 21 213 39 187 58 369 238 430 426 33 103 35 117
29 275 -3 88 -4 160 -2 160 1 0 28 -11 58 -25 73 -34 137 -40 216 -21 93 22
96 28 59 106 -17 35 -52 85 -77 110 -63 62 -234 149 -294 150 -9 0 -26 5 -36
12 -38 24 -398 -36 -566 -94 -69 -23 -171 -71 -199 -93 -25 -19 -13 -32 17
-18 59 28 83 33 145 33 184 0 330 -122 372 -312 25 -112 -30 -263 -124 -342
-83 -68 -144 -90 -250 -89 -68 0 -92 5 -148 31 -81 37 -148 102 -185 181 -25
51 -27 67 -28 176 0 164 33 310 94 415 44 77 147 172 236 217 90 46 267 104
473 154 28 7 52 16 52 21 0 4 -205 8 -455 8 -572 0 -664 9 -809 82 -93 47
-174 154 -191 251 -3 20 -10 37 -16 37 -5 0 -20 -24 -33 -52z"/>
</g>
</svg>
